<svg width="8000" height="8000" viewBox="0 0 8000 8000" fill="none" xmlns="http://www.w3.org/2000/svg">
<path d="M4185.81 3750.46C3980.35 3544.31 4054.71 3456.92 4148.63 3389.7C4242.56 3322.47 4497.9 3163.38 4569.35 3389.7C4640.8 3616.02 4718.07 3696.68 4588.92 3768.39C4459.77 3840.09 4391.28 3956.61 4185.81 3750.46Z" stroke="black"/>
<path d="M4135.25 3771.68C3927.3 3488.37 4027.29 3400.29 4147.01 3339.82C4266.73 3279.35 4588.58 3142.78 4637.28 3423.25C4685.98 3703.71 4763.7 3813.95 4602.26 3872.7C4440.81 3931.46 4343.2 4054.98 4135.25 3771.68Z" stroke="black"/>
<path d="M4051.59 3756.01C3824.89 3415.79 3949.66 3331.11 4095.87 3279.52C4242.09 3227.92 4633.35 3118 4671.4 3434.66C4709.45 3751.33 4793.88 3883.31 4598.3 3927.66C4402.72 3972.02 4278.3 4096.24 4051.59 3756.01Z" stroke="black"/>
<path d="M3981.07 3753.38C3719.96 3351.4 3872.94 3270.19 4050.59 3228.02C4228.25 3185.84 4702.67 3104.29 4737.64 3460.45C4772.61 3816.61 4869.67 3972.18 4632.88 4001.17C4396.09 4030.15 4242.18 4155.36 3981.07 3753.38Z" stroke="black"/>
<path d="M3954.22 3806.64C3670.49 3329.07 3849.96 3243.35 4056.2 3203.95C4262.43 3164.56 4811.88 3095.23 4837.25 3508.1C4862.62 3920.98 4967.84 4105.59 4694.09 4126.67C4420.33 4147.75 4237.96 4284.22 3954.22 3806.64Z" stroke="black"/>
<path d="M3892.6 3849.72C3541.12 3361.03 3732.87 3256.25 3957.87 3198.95C4182.87 3141.65 4785.12 3026.99 4845.73 3465.75C4906.35 3904.52 5037.28 4093.76 4736.16 4136.52C4435.04 4179.27 4244.08 4338.41 3892.6 3849.72Z" stroke="black"/>
<path d="M3831.12 3831.97C3509.47 3228.93 3733.91 3139.31 3988.62 3108.14C4243.34 3076.96 4920.03 3037.17 4928.75 3540.73C4937.48 4044.29 5056.36 4277.05 4719.94 4280.52C4383.53 4283.99 4152.78 4435.01 3831.12 3831.97Z" stroke="black"/>
<path d="M3700.49 3835.08C3344.22 3145.48 3599.46 3045.82 3888.22 3012.99C4176.98 2980.16 4943.52 2941.91 4946.84 3515.05C4950.16 4088.2 5081.7 4354.31 4700.82 4354.77C4319.94 4355.22 4056.76 4524.68 3700.49 3835.08Z" stroke="black"/>
<path d="M3646.46 3837.6C3299.68 3045.04 3589.12 2964.33 3911.04 2960.32C4232.97 2956.31 5084.2 2999.06 5048.3 3625.49C5012.4 4251.92 5139.64 4557.11 4717.97 4515.6C4296.3 4474.09 3993.24 4630.17 3646.46 3837.6Z" stroke="black"/>
<path d="M3521.07 3938.3C3165.64 3025.25 3490.29 2916.21 3848.15 2895.58C4206.02 2874.94 5150.24 2883 5086.72 3620C5023.19 4356.99 5153.07 4708.88 4686.09 4681.03C4219.12 4653.17 3876.49 4851.34 3521.07 3938.3Z" stroke="black"/>
<path d="M3396.91 3905.1C3125.38 2834.06 3497.93 2759.65 3895.43 2788.76C4292.94 2817.87 5333.52 2964.46 5166.12 3777.92C4998.72 4591.37 5095.52 5003.12 4584.05 4903.97C4072.57 4804.83 3668.43 4976.13 3396.91 3905.1Z" stroke="black"/>
<path d="M3274.76 4071.26C2813.48 2922.75 3222.06 2776.62 3673.77 2741.72C4125.49 2706.82 5318.19 2693.96 5247.94 3629.58C5177.68 4565.2 5346.47 5008.02 4756.29 4984.12C4166.1 4960.23 3736.03 5219.77 3274.76 4071.26Z" stroke="black"/>
<path d="M3179.48 4193.18C2529.3 3001.08 2967.26 2791.64 3466.48 2697.84C3965.7 2604.03 5293.24 2442.6 5325.88 3468.86C5358.51 4495.12 5599.11 4955.86 4938.61 5002.84C4278.12 5049.82 3829.66 5385.27 3179.48 4193.18Z" stroke="black"/>
<path d="M3096.89 4246.33C2319.29 2972.57 2802.64 2745.49 3359.39 2641.97C3916.14 2538.46 5400.18 2357.53 5477.82 3457.24C5555.45 4556.95 5843.98 5049.31 5104.29 5103.6C4364.6 5157.89 3874.49 5520.08 3096.89 4246.33Z" stroke="black"/>
<path d="M2956.04 4391.77C1997.84 3083.89 2513.06 2797.26 3118.98 2637.7C3724.9 2478.13 5347.52 2155.3 5519.92 3335.51C5692.33 4515.71 6049.43 5022.3 5237.84 5144.47C4426.25 5266.63 3914.25 5699.65 2956.04 4391.77Z" stroke="black"/>
<path d="M2871.46 4524.26C1755.81 3208.52 2288.84 2856.71 2927.69 2632.94C3566.55 2409.16 5284.42 1921.72 5548.96 3169.59C5813.51 4417.45 6230.58 4928.31 5368.7 5130.06C4506.81 5331.81 3987.11 5839.99 2871.46 4524.26Z" stroke="black"/>
<path d="M2732.95 4439.55C1608.07 2936.98 2210.43 2621.66 2919.27 2452.27C3628.12 2282.87 5526.61 1947.8 5731.37 3290.35C5936.14 4632.9 6355.4 5214.63 5405.73 5337.62C4456.05 5460.62 3857.82 5942.12 2732.95 4439.55Z" stroke="black"/>
<path d="M2598.06 4344.04C1454.3 2672.95 2118.97 2390.55 2891.73 2270.23C3664.5 2149.91 5728.67 1952.35 5887.05 3380.28C6045.43 4808.22 6470.72 5453.87 5440.24 5505.8C4409.77 5557.72 3741.81 6015.14 2598.06 4344.04Z" stroke="black"/>
<path d="M2483.54 4334.61C1302.29 2476.7 2030.81 2200.81 2870.85 2104.99C3710.89 2009.16 5950.59 1887.1 6074 3438.32C6197.41 4989.55 6635.83 5706.64 5519.3 5717.07C4402.77 5727.5 3664.8 6192.51 2483.54 4334.61Z" stroke="black"/>
<path d="M2318.85 4279.37C1212.45 2146.78 2016.52 1912.63 2924.63 1884.89C3832.75 1857.14 6242.53 1928.6 6241.94 3630.39C6241.35 5332.18 6649.63 6153.7 5452.62 6063.13C4255.62 5972.56 3425.25 6411.96 2318.85 4279.37Z" stroke="black"/>
<path d="M2186.95 4381.4C1074.82 2063.71 1928.37 1778.4 2886.36 1717.52C3844.34 1656.65 6382.77 1655.27 6338.92 3534.2C6295.08 5413.13 6704.59 6306.55 5445.08 6246.42C4185.57 6186.3 3299.08 6699.09 2186.95 4381.4Z" stroke="black"/>
<path d="M2068.42 4566.41C861.165 2072.95 1774.85 1733.65 2801.95 1635.9C3829.05 1538.16 6551.61 1453.75 6516.3 3506.06C6480.99 5558.37 6925.78 6520.17 5574.53 6495.68C4223.28 6471.2 3275.68 7059.88 2068.42 4566.41Z" stroke="black"/>
<path d="M1947.17 4638.97C666.272 2016.98 1629.73 1663.97 2713.54 1564.97C3797.34 1465.96 6670.69 1386.89 6638.92 3541.37C6607.15 5695.85 7079.19 6707.16 5652.92 6676.71C4226.65 6646.26 3228.07 7260.96 1947.17 4638.97Z" stroke="black"/>
<path d="M1594.17 4759.13C85.4216 2115.52 1138.7 1636.12 2334 1413.22C3529.31 1190.32 6704.69 794.047 6745.11 3084.16C6785.54 5374.28 7343.13 6396.31 5764.5 6519.04C4185.86 6641.77 3102.91 7402.73 1594.17 4759.13Z" stroke="black"/>
<path d="M4201.68 3689.67C4040.53 3484.63 4113.54 3416.88 4201.84 3369.13C4290.14 3321.38 4528.05 3212.29 4570.07 3419.08C4612.08 3625.88 4672.4 3705.74 4552.87 3753.24C4433.33 3800.73 4362.82 3894.7 4201.68 3689.67Z" stroke="black"/>
<path d="M4230.29 3603.82C4118.42 3418.59 4185.67 3377.18 4263.48 3353.76C4341.29 3330.34 4548.92 3282.51 4562.27 3450.43C4575.63 3618.36 4617.18 3690.13 4513.61 3708.45C4410.05 3726.78 4342.16 3789.04 4230.29 3603.82Z" stroke="black"/>
<path d="M4257.22 3539.12C4197.24 3371.33 4257.22 3358.34 4322.78 3361.57C4388.34 3364.8 4560.97 3384.34 4545.3 3513.05C4529.62 3641.76 4551.44 3706.29 4466.19 3692.42C4380.94 3678.55 4317.19 3706.91 4257.22 3539.12Z" stroke="black"/>
<path d="M4300.22 3506.57C4257.93 3366.32 4307.52 3363.07 4361.03 3373.35C4414.54 3383.64 4554.98 3419.49 4536.96 3519.81C4518.93 3620.14 4534.17 3673.93 4464.99 3652.88C4395.81 3631.82 4342.5 3646.83 4300.22 3506.57Z" stroke="black"/>
<path d="M4330.93 3523.7C4279.9 3426.88 4316.25 3414.49 4357.39 3411.48C4398.53 3408.46 4507.77 3407.19 4508.45 3486.13C4509.12 3565.07 4527.97 3602.41 4473.68 3600.48C4419.4 3598.56 4381.95 3620.53 4330.93 3523.7Z" stroke="black"/>
</svg>
